<svg width="28" height="28" viewBox="0 0 28 28" fill="none" xmlns="http://www.w3.org/2000/svg">
<rect x="0.5" y="-0.5" width="27" height="27" rx="13.5" transform="matrix(1 1.74846e-07 1.74846e-07 -1 8.74228e-08 27)" stroke="#6A0BFF"/>
<path fill-rule="evenodd" clip-rule="evenodd" d="M15.2234 19.4419C15.4675 19.686 15.8632 19.686 16.1073 19.4419L21.1073 14.4419C21.3514 14.1979 21.3514 13.8021 21.1073 13.5581L16.1073 8.55806C15.8632 8.31398 15.4675 8.31398 15.2234 8.55806C14.9793 8.80214 14.9793 9.19787 15.2234 9.44194L19.1565 13.375L7.33203 13.375C6.98685 13.375 6.70703 13.6548 6.70703 14C6.70703 14.3452 6.98685 14.625 7.33203 14.625L19.1565 14.625L15.2234 18.5581C14.9793 18.8021 14.9793 19.1979 15.2234 19.4419Z" fill="#6A0BFF"/>
</svg>
