<svg width="28" height="28" viewBox="0 0 28 28" fill="none" xmlns="http://www.w3.org/2000/svg">
<rect x="0.5" y="0.5" width="27" height="27" rx="13.5" stroke="#6A0BFF"/>
<path fill-rule="evenodd" clip-rule="evenodd" d="M12.774 8.55806C13.0181 8.80214 13.0181 9.19786 12.774 9.44194L8.84091 13.375H20.6654C21.0105 13.375 21.2904 13.6548 21.2904 14C21.2904 14.3452 21.0105 14.625 20.6654 14.625H8.84091L12.774 18.5581C13.0181 18.8021 13.0181 19.1979 12.774 19.4419C12.5299 19.686 12.1342 19.686 11.8901 19.4419L6.89009 14.4419C6.64601 14.1979 6.64601 13.8021 6.89009 13.5581L11.8901 8.55806C12.1342 8.31398 12.5299 8.31398 12.774 8.55806Z" fill="#6A0BFF"/>
</svg>
