<svg width="32" height="32" viewBox="0 0 32 32" fill="none" xmlns="http://www.w3.org/2000/svg">
<path fill-rule="evenodd" clip-rule="evenodd" d="M27.668 9.33203C27.668 9.88432 27.2203 10.332 26.668 10.332L5.33464 10.332C4.78235 10.332 4.33464 9.88432 4.33464 9.33203C4.33464 8.77975 4.78235 8.33203 5.33464 8.33203L26.668 8.33203C27.2203 8.33203 27.668 8.77975 27.668 9.33203Z" fill="#5E5E5E"/>
<path fill-rule="evenodd" clip-rule="evenodd" d="M27.668 16C27.668 16.5523 27.2203 17 26.668 17L5.33464 17C4.78235 17 4.33464 16.5523 4.33464 16C4.33464 15.4477 4.78235 15 5.33464 15L26.668 15C27.2203 15 27.668 15.4477 27.668 16Z" fill="#5E5E5E"/>
<path fill-rule="evenodd" clip-rule="evenodd" d="M27.668 22.668C27.668 23.2203 27.2203 23.668 26.668 23.668L5.33464 23.668C4.78235 23.668 4.33464 23.2203 4.33464 22.668C4.33464 22.1157 4.78235 21.668 5.33464 21.668L26.668 21.668C27.2203 21.668 27.668 22.1157 27.668 22.668Z" fill="#5E5E5E"/>
</svg>
