<svg width="14" height="20" viewBox="0 0 14 20" fill="none" xmlns="http://www.w3.org/2000/svg">
<path d="M6.71484 10.0013C6.71484 8.16035 8.20723 6.66797 10.0482 6.66797C11.8891 6.66797 13.3815 8.16039 13.3815 10.0013C13.3815 11.8423 11.8891 13.3346 10.0482 13.3346C8.20719 13.3346 6.71484 11.8422 6.71484 10.0013Z" fill="#00BCFF"/>
<path d="M0.046875 16.6657C0.046875 14.8248 1.53926 13.3324 3.3802 13.3324L5.15656 12.3945L6.71352 13.3324V16.6657C6.71352 18.5067 5.22113 19.999 3.3802 19.999C1.53926 19.999 0.046875 18.5066 0.046875 16.6657Z" fill="#00CF7F"/>
<path d="M6.71227 0L4.89844 3.15117L6.71227 6.66664H9.99883C11.8398 6.66664 13.3321 5.17426 13.3321 3.33332C13.3321 1.49238 11.8398 0 9.99883 0H6.71227Z" fill="#FF7361"/>
<path d="M0 3.33332C0 5.17426 1.49238 6.66664 3.33332 6.66664L5.10156 7.34961L6.7134 6.66664V0H3.33328C1.49238 0 0 1.49238 0 3.33332Z" fill="#FF4D12"/>
<path d="M0.046875 10.0013C0.046875 11.8423 1.53926 13.3346 3.3802 13.3346H6.71352V6.66797H3.3802C1.53926 6.66797 0.046875 8.16039 0.046875 10.0013Z" fill="#B659FF"/>
</svg>
