<svg width="29" height="28" viewBox="0 0 29 28" fill="none" xmlns="http://www.w3.org/2000/svg">
<path d="M14.4732 0C6.4809 0 0 6.36294 0 14.2127C0 20.4923 4.147 25.8199 9.89763 27.6992C10.6209 27.8308 10.8865 27.3909 10.8865 27.0155C10.8865 26.6766 10.8731 25.557 10.8669 24.3694C6.8404 25.2291 5.99078 22.6924 5.99078 22.6924C5.3324 21.0496 4.38379 20.6128 4.38379 20.6128C3.07064 19.7307 4.48278 19.7488 4.48278 19.7488C5.93613 19.8488 6.7014 21.2134 6.7014 21.2134C7.99226 23.3863 10.0872 22.7581 10.9131 22.3949C11.043 21.4766 11.4181 20.8491 11.832 20.4944C8.61731 20.135 5.23798 18.9163 5.23798 13.4703C5.23798 11.9186 5.80335 10.6507 6.7292 9.65539C6.57893 9.29717 6.08353 7.85183 6.8694 5.89411C6.8694 5.89411 8.08477 5.51212 10.8506 7.35098C12.005 7.03607 13.2432 6.87815 14.4732 6.87273C15.7031 6.87815 16.9422 7.03607 18.0989 7.35098C20.8613 5.51212 22.075 5.89411 22.075 5.89411C22.8628 7.85183 22.3671 9.29717 22.2169 9.65539C23.1449 10.6507 23.7064 11.9186 23.7064 13.4703C23.7064 18.9293 20.3206 20.1312 17.0978 20.4831C17.6169 20.9242 18.0795 21.7891 18.0795 23.1151C18.0795 25.0166 18.0627 26.5471 18.0627 27.0155C18.0627 27.3937 18.3232 27.8369 19.0568 27.6973C24.8043 25.8159 28.9461 20.4902 28.9461 14.2127C28.9461 6.36294 22.4661 0 14.4732 0Z" fill="white"/>
<path d="M5.48136 20.405C5.44948 20.4759 5.33636 20.4968 5.2333 20.4483C5.12833 20.402 5.06937 20.3057 5.1034 20.2349C5.13456 20.1621 5.24792 20.1421 5.35266 20.1904C5.45787 20.237 5.51779 20.3342 5.48136 20.405Z" fill="white"/>
<path d="M6.06802 21.0503C5.999 21.1132 5.86406 21.084 5.77251 20.9847C5.67784 20.8856 5.6601 20.7531 5.73009 20.6893C5.80127 20.6265 5.93213 20.6559 6.02704 20.755C6.12171 20.8552 6.14016 20.9868 6.06802 21.0503Z" fill="white"/>
<path d="M6.63958 21.8651C6.55091 21.9256 6.40591 21.8688 6.31627 21.7424C6.22759 21.6161 6.22759 21.4645 6.31819 21.4038C6.40806 21.343 6.55091 21.3976 6.64174 21.5231C6.73018 21.6514 6.73018 21.8032 6.63958 21.8651Z" fill="white"/>
<path d="M7.42235 22.6566C7.34302 22.7425 7.17405 22.7194 7.05038 22.6022C6.92384 22.4876 6.88861 22.325 6.96818 22.2391C7.04847 22.1529 7.21839 22.1772 7.34302 22.2934C7.46861 22.4078 7.50695 22.5716 7.42235 22.6566Z" fill="white"/>
<path d="M8.49994 23.1151C8.46495 23.2264 8.30221 23.277 8.13828 23.2297C7.97459 23.181 7.86745 23.0506 7.90053 22.9381C7.93456 22.8261 8.09802 22.7734 8.26315 22.824C8.4266 22.8725 8.53397 23.0019 8.49994 23.1151Z" fill="white"/>
<path d="M9.68444 23.2035C9.68852 23.3207 9.54951 23.4179 9.37743 23.4198C9.20438 23.4238 9.06442 23.329 9.0625 23.2136C9.0625 23.0953 9.19839 22.999 9.37143 22.9962C9.54352 22.9929 9.68444 23.087 9.68444 23.2035Z" fill="white"/>
<path d="M10.785 23.018C10.8057 23.1324 10.6861 23.2498 10.5152 23.2809C10.3472 23.3112 10.1916 23.2406 10.1703 23.1272C10.1494 23.01 10.2712 22.8925 10.439 22.8622C10.6101 22.833 10.7632 22.9017 10.785 23.018Z" fill="white"/>
</svg>
