<svg width="95" height="21" viewBox="0 0 95 21" fill="none" xmlns="http://www.w3.org/2000/svg">
<path d="M14.4377 0.957031H19.1707L11.9624 13.6008V19.9092H7.50134V13.6008L0.292969 0.957031H5.02601L9.73185 9.56674L14.4377 0.957031Z" fill="#141414"/>
<path d="M24.916 20.207C22.8487 20.207 21.135 19.5663 19.7749 18.2847C18.4148 16.9852 17.7348 15.2975 17.7348 13.2218C17.7348 11.1641 18.4058 9.48551 19.7477 8.18594C21.1078 6.88636 22.7852 6.23657 24.78 6.23657C26.7385 6.23657 28.3615 6.85026 29.649 8.07764C30.9365 9.28697 31.5803 10.8844 31.5803 12.8698C31.5803 13.2308 31.5531 13.6821 31.4987 14.2236H22.1142C22.2593 15.0719 22.5766 15.7127 23.0663 16.1459C23.574 16.579 24.1815 16.7956 24.8888 16.7956C25.4872 16.7956 26.004 16.6512 26.4392 16.3624C26.8745 16.0556 27.1465 15.6495 27.2553 15.1441L31.0363 16.1459C30.6736 17.4815 29.9301 18.4923 28.8058 19.1782C27.6996 19.8641 26.403 20.207 24.916 20.207ZM22.2502 11.5161H27.4185C27.3097 11.0288 27.0195 10.6046 26.548 10.2436C26.0947 9.86456 25.5144 9.67503 24.8072 9.67503C23.5378 9.67503 22.6854 10.2887 22.2502 11.5161Z" fill="#141414"/>
<path d="M46.0429 16.4437C46.188 16.4437 46.3966 16.3985 46.6686 16.3083V19.9634C46.2878 20.1078 45.7528 20.18 45.0637 20.18C43.3228 20.18 42.1441 19.6926 41.5275 18.7179C40.5845 19.6926 39.2335 20.18 37.4745 20.18C36.0963 20.18 34.972 19.819 34.1015 19.097C33.2492 18.375 32.8231 17.3823 32.8231 16.1188C32.8231 14.9455 33.213 13.9979 33.9927 13.2759C34.7725 12.554 35.8243 12.1298 37.1481 12.0034L41.0379 11.6515V11.3807C41.0379 10.8573 40.8565 10.4421 40.4939 10.1353C40.1312 9.81041 39.6688 9.64796 39.1066 9.64796C38.0911 9.64796 37.4836 10.1353 37.2841 11.11L33.3943 10.5685C33.63 9.05232 34.301 7.95129 35.4072 7.2654C36.5315 6.57951 37.8735 6.23657 39.433 6.23657C41.2827 6.23657 42.7334 6.67879 43.7852 7.56322C44.8551 8.42961 45.3901 9.66601 45.3901 11.2724V15.7127C45.3901 16.2 45.6077 16.4437 46.0429 16.4437ZM41.0379 14.6568V14.3589L38.481 14.6568C38.0457 14.7109 37.7012 14.8553 37.4473 15.0899C37.1934 15.3065 37.0665 15.5683 37.0665 15.8751C37.0665 16.2361 37.2206 16.5159 37.5289 16.7144C37.8553 16.913 38.2633 17.0032 38.753 16.9852C39.4058 16.9491 39.9498 16.7325 40.3851 16.3354C40.8203 15.9383 41.0379 15.3787 41.0379 14.6568Z" fill="#141414"/>
<path d="M56.4558 6.23657C57.979 6.23657 59.2212 6.67879 60.1824 7.56322C61.1616 8.44766 61.6512 9.68406 61.6512 11.2724V19.9092H57.299V12.5991C57.299 11.7868 57.0995 11.1822 56.7006 10.7851C56.3016 10.3699 55.7576 10.1624 55.0685 10.1624C54.3794 10.1624 53.8263 10.379 53.4092 10.8122C53.0103 11.2454 52.8108 11.8771 52.8108 12.7074V19.9092H48.4585V0.957031H52.8108V7.61737C53.6994 6.69684 54.9144 6.23657 56.4558 6.23657Z" fill="#141414"/>
<path d="M72.9432 6.50731H77.2954V19.9092H72.9432V18.7992C72.0546 19.7197 70.8396 20.18 69.2982 20.18C67.8475 20.18 66.6143 19.7197 65.5988 18.7992C64.6014 17.8606 64.1027 16.552 64.1027 14.8733V6.50731H68.455V13.9257C68.455 14.7019 68.6545 15.2885 69.0534 15.6856C69.4524 16.0646 69.9964 16.2541 70.6855 16.2541C71.3746 16.2541 71.9186 16.0376 72.3176 15.6044C72.7347 15.1712 72.9432 14.5394 72.9432 13.7091V6.50731Z" fill="#141414"/>
<path d="M88.0725 6.23657C89.9222 6.23657 91.4908 6.89538 92.7783 8.21301C94.0659 9.51259 94.7096 11.1822 94.7096 13.2218C94.7096 15.2253 94.0749 16.8859 92.8055 18.2035C91.5361 19.5211 89.9675 20.18 88.0997 20.18C86.5039 20.18 85.1982 19.6926 84.1827 18.7179V19.9092H79.8305V0.957031H84.1827V7.67152C85.1801 6.71488 86.4767 6.23657 88.0725 6.23657ZM87.202 16.4166C88.0362 16.4166 88.7435 16.1278 89.3238 15.5502C89.9041 14.9546 90.1942 14.1784 90.1942 13.2218C90.1942 12.2471 89.9041 11.471 89.3238 10.8934C88.7616 10.2977 88.0544 9.99993 87.202 9.99993C86.3316 9.99993 85.6062 10.2977 85.0259 10.8934C84.4638 11.471 84.1827 12.2471 84.1827 13.2218C84.1827 14.1784 84.4638 14.9546 85.0259 15.5502C85.6062 16.1278 86.3316 16.4166 87.202 16.4166Z" fill="#141414"/>
</svg>
